<mxfile host="65bd71144e">
    <diagram id="C1VsJyiSO3eSdsrZI4Uc" name="Page-1">
        <mxGraphModel dx="682" dy="837" grid="0" gridSize="10" guides="1" tooltips="1" connect="1" arrows="1" fold="1" page="0" pageScale="1" pageWidth="850" pageHeight="1100" math="0" shadow="0">
            <root>
                <mxCell id="0"/>
                <mxCell id="1" parent="0"/>
                <mxCell id="30" value="" style="rounded=0;whiteSpace=wrap;html=1;" parent="1" vertex="1">
                    <mxGeometry x="2048" y="-51" width="788" height="539" as="geometry"/>
                </mxCell>
                <mxCell id="22" value="" style="rounded=0;whiteSpace=wrap;html=1;" parent="1" vertex="1">
                    <mxGeometry x="1034" y="-40" width="713" height="563" as="geometry"/>
                </mxCell>
                <mxCell id="8" value="" style="rounded=0;whiteSpace=wrap;html=1;" parent="1" vertex="1">
                    <mxGeometry x="80" y="-40" width="730" height="450" as="geometry"/>
                </mxCell>
                <mxCell id="6" style="edgeStyle=none;html=1;exitX=0.5;exitY=1;exitDx=0;exitDy=0;entryX=0.5;entryY=0;entryDx=0;entryDy=0;" parent="1" source="2" target="5" edge="1">
                    <mxGeometry relative="1" as="geometry"/>
                </mxCell>
                <mxCell id="2" value="GET /waters?type=day" style="rounded=0;whiteSpace=wrap;html=1;" parent="1" vertex="1">
                    <mxGeometry x="165" y="120" width="210" height="60" as="geometry"/>
                </mxCell>
                <mxCell id="4" style="edgeStyle=none;html=1;exitX=0.5;exitY=1;exitDx=0;exitDy=0;entryX=0.5;entryY=0;entryDx=0;entryDy=0;" parent="1" source="3" target="2" edge="1">
                    <mxGeometry relative="1" as="geometry"/>
                </mxCell>
                <mxCell id="3" value="water_day_cal" style="ellipse;whiteSpace=wrap;html=1;" parent="1" vertex="1">
                    <mxGeometry x="210" y="10" width="120" height="80" as="geometry"/>
                </mxCell>
                <mxCell id="5" value="&lt;p style=&quot;color: rgb(204, 204, 204); background-color: rgb(31, 31, 31); font-family: Menlo, Monaco, &amp;quot;Courier New&amp;quot;, monospace; line-height: 18px;&quot;&gt;&lt;span style=&quot;color: #ce9178;&quot;&gt;POST /waters/calculate/day&lt;/span&gt;&lt;/p&gt;" style="rounded=0;whiteSpace=wrap;html=1;" parent="1" vertex="1">
                    <mxGeometry x="145" y="230" width="250" height="60" as="geometry"/>
                </mxCell>
                <mxCell id="7" value="&lt;div style=&quot;background-color: rgb(31, 31, 31); line-height: 18px;&quot;&gt;&lt;div style=&quot;&quot;&gt;&lt;font face=&quot;Menlo, Monaco, Courier New, monospace&quot; color=&quot;#cccccc&quot;&gt;{&lt;/font&gt;&lt;/div&gt;&lt;div style=&quot;&quot;&gt;&lt;font face=&quot;Menlo, Monaco, Courier New, monospace&quot; color=&quot;#cccccc&quot;&gt;&amp;nbsp; &quot;area_id&quot;: &amp;lt;int&amp;gt;,&lt;/font&gt;&lt;/div&gt;&lt;div style=&quot;&quot;&gt;&lt;font face=&quot;Menlo, Monaco, Courier New, monospace&quot; color=&quot;#cccccc&quot;&gt;&amp;nbsp; &quot;number_person&quot;: &amp;lt;int&amp;gt;,&lt;/font&gt;&lt;/div&gt;&lt;div style=&quot;&quot;&gt;&lt;font face=&quot;Menlo, Monaco, Courier New, monospace&quot; color=&quot;#cccccc&quot;&gt;&amp;nbsp; &quot;number_day&quot;: &amp;lt;int&amp;gt;&lt;/font&gt;&lt;/div&gt;&lt;div style=&quot;&quot;&gt;&lt;font face=&quot;Menlo, Monaco, Courier New, monospace&quot; color=&quot;#cccccc&quot;&gt;}&lt;/font&gt;&lt;/div&gt;&lt;/div&gt;" style="shape=note;whiteSpace=wrap;html=1;backgroundOutline=1;darkOpacity=0.05;size=15;align=left;" parent="1" vertex="1">
                    <mxGeometry x="498" y="195" width="210" height="130" as="geometry"/>
                </mxCell>
                <mxCell id="11" style="edgeStyle=none;html=1;exitX=0.5;exitY=1;exitDx=0;exitDy=0;entryX=0.5;entryY=0;entryDx=0;entryDy=0;" parent="1" source="9" target="10" edge="1">
                    <mxGeometry relative="1" as="geometry"/>
                </mxCell>
                <mxCell id="9" value="water_plant_cal" style="ellipse;whiteSpace=wrap;html=1;" parent="1" vertex="1">
                    <mxGeometry x="1163" y="30" width="120" height="80" as="geometry"/>
                </mxCell>
                <mxCell id="16" style="edgeStyle=none;html=1;exitX=0.5;exitY=1;exitDx=0;exitDy=0;entryX=0.5;entryY=0;entryDx=0;entryDy=0;" parent="1" source="10" target="15" edge="1">
                    <mxGeometry relative="1" as="geometry"/>
                </mxCell>
                <mxCell id="10" value="&lt;span style=&quot;color: rgb(255, 255, 255); font-family: Inter, system-ui, -apple-system, &amp;quot;system-ui&amp;quot;, &amp;quot;Segoe UI&amp;quot;, Roboto, Oxygen, Ubuntu, Cantarell, &amp;quot;Fira Sans&amp;quot;, &amp;quot;Droid Sans&amp;quot;, Helvetica, Arial, sans-serif; text-align: left; background-color: rgb(33, 33, 33);&quot;&gt;GET /waters?type=plant&lt;/span&gt;" style="rounded=0;whiteSpace=wrap;html=1;" parent="1" vertex="1">
                    <mxGeometry x="1116.5" y="166" width="213" height="60" as="geometry"/>
                </mxCell>
                <mxCell id="12" value="&lt;div style=&quot;color: rgb(204, 204, 204); background-color: rgb(31, 31, 31); font-family: Menlo, Monaco, &amp;quot;Courier New&amp;quot;, monospace; line-height: 18px;&quot;&gt;&lt;span style=&quot;color: #ce9178;&quot;&gt;POST /waters/calculate/plant&lt;/span&gt;&lt;/div&gt;" style="rounded=0;whiteSpace=wrap;html=1;" parent="1" vertex="1">
                    <mxGeometry x="1098.5" y="388" width="249" height="60" as="geometry"/>
                </mxCell>
                <mxCell id="14" value="&lt;div style=&quot;background-color: rgb(31, 31, 31); line-height: 18px;&quot;&gt;&lt;div style=&quot;&quot;&gt;&lt;font face=&quot;Menlo, Monaco, Courier New, monospace&quot; color=&quot;#cccccc&quot;&gt;{&lt;/font&gt;&lt;/div&gt;&lt;div style=&quot;&quot;&gt;&lt;font face=&quot;Menlo, Monaco, Courier New, monospace&quot; color=&quot;#cccccc&quot;&gt;&amp;nbsp; &quot;&lt;/font&gt;&lt;span style=&quot;color: rgb(206, 145, 120); font-family: Menlo, Monaco, &amp;quot;Courier New&amp;quot;, monospace;&quot;&gt;plant_name&lt;/span&gt;&lt;span style=&quot;color: rgb(204, 204, 204); font-family: Menlo, Monaco, &amp;quot;Courier New&amp;quot;, monospace;&quot;&gt;&quot;: &amp;lt;str&amp;gt;,&lt;/span&gt;&lt;br&gt;&lt;/div&gt;&lt;div style=&quot;&quot;&gt;&lt;font face=&quot;Menlo, Monaco, Courier New, monospace&quot; color=&quot;#cccccc&quot;&gt;&amp;nbsp; &quot;&lt;/font&gt;&lt;span style=&quot;color: rgb(206, 145, 120); font-family: Menlo, Monaco, &amp;quot;Courier New&amp;quot;, monospace;&quot;&gt;province_id&lt;/span&gt;&lt;span style=&quot;color: rgb(204, 204, 204); font-family: Menlo, Monaco, &amp;quot;Courier New&amp;quot;, monospace;&quot;&gt;&quot;: &amp;lt;int&amp;gt;,&lt;/span&gt;&lt;br&gt;&lt;/div&gt;&lt;div style=&quot;&quot;&gt;&lt;font face=&quot;Menlo, Monaco, Courier New, monospace&quot; color=&quot;#cccccc&quot;&gt;&amp;nbsp; &quot;&lt;/font&gt;&lt;span style=&quot;color: rgb(206, 145, 120); font-family: Menlo, Monaco, &amp;quot;Courier New&amp;quot;, monospace;&quot;&gt;farm_area&lt;/span&gt;&lt;span style=&quot;color: rgb(204, 204, 204); font-family: Menlo, Monaco, &amp;quot;Courier New&amp;quot;, monospace;&quot;&gt;&quot;: &amp;lt;int&amp;gt;&lt;/span&gt;&lt;br&gt;&lt;/div&gt;&lt;div style=&quot;&quot;&gt;&lt;font face=&quot;Menlo, Monaco, Courier New, monospace&quot; color=&quot;#cccccc&quot;&gt;}&lt;/font&gt;&lt;/div&gt;&lt;/div&gt;" style="shape=note;whiteSpace=wrap;html=1;backgroundOutline=1;darkOpacity=0.05;size=15;align=left;" parent="1" vertex="1">
                    <mxGeometry x="1455" y="353" width="210" height="130" as="geometry"/>
                </mxCell>
                <mxCell id="17" style="edgeStyle=none;html=1;exitX=0.5;exitY=1;exitDx=0;exitDy=0;entryX=0.5;entryY=0;entryDx=0;entryDy=0;" parent="1" source="15" target="12" edge="1">
                    <mxGeometry relative="1" as="geometry"/>
                </mxCell>
                <mxCell id="15" value="&lt;span style=&quot;color: rgb(255, 255, 255); font-family: Inter, system-ui, -apple-system, &amp;quot;system-ui&amp;quot;, &amp;quot;Segoe UI&amp;quot;, Roboto, Oxygen, Ubuntu, Cantarell, &amp;quot;Fira Sans&amp;quot;, &amp;quot;Droid Sans&amp;quot;, Helvetica, Arial, sans-serif; text-align: left; background-color: rgb(33, 33, 33);&quot;&gt;GET /province&lt;/span&gt;" style="rounded=0;whiteSpace=wrap;html=1;" parent="1" vertex="1">
                    <mxGeometry x="1116.5" y="271" width="213" height="60" as="geometry"/>
                </mxCell>
                <mxCell id="20" value="" style="endArrow=none;dashed=1;html=1;dashPattern=1 3;strokeWidth=2;exitX=1;exitY=0.5;exitDx=0;exitDy=0;entryX=0;entryY=0.5;entryDx=0;entryDy=0;entryPerimeter=0;" parent="1" source="12" target="14" edge="1">
                    <mxGeometry width="50" height="50" relative="1" as="geometry">
                        <mxPoint x="1535" y="352" as="sourcePoint"/>
                        <mxPoint x="1585" y="302" as="targetPoint"/>
                    </mxGeometry>
                </mxCell>
                <mxCell id="21" value="" style="endArrow=none;dashed=1;html=1;exitX=1;exitY=0.5;exitDx=0;exitDy=0;entryX=0;entryY=0.5;entryDx=0;entryDy=0;entryPerimeter=0;" parent="1" source="5" target="7" edge="1">
                    <mxGeometry width="50" height="50" relative="1" as="geometry">
                        <mxPoint x="698" y="280" as="sourcePoint"/>
                        <mxPoint x="748" y="230" as="targetPoint"/>
                    </mxGeometry>
                </mxCell>
                <mxCell id="26" style="edgeStyle=none;html=1;exitX=0.5;exitY=1;exitDx=0;exitDy=0;entryX=0.5;entryY=0;entryDx=0;entryDy=0;" parent="1" source="23" target="24" edge="1">
                    <mxGeometry relative="1" as="geometry"/>
                </mxCell>
                <mxCell id="23" value="water_industry_cal" style="ellipse;whiteSpace=wrap;html=1;" parent="1" vertex="1">
                    <mxGeometry x="2198.5" y="48" width="120" height="80" as="geometry"/>
                </mxCell>
                <mxCell id="27" style="edgeStyle=none;html=1;exitX=0.5;exitY=1;exitDx=0;exitDy=0;entryX=0.5;entryY=0;entryDx=0;entryDy=0;" parent="1" source="24" target="25" edge="1">
                    <mxGeometry relative="1" as="geometry"/>
                </mxCell>
                <mxCell id="24" value="&lt;span style=&quot;color: rgb(255, 255, 255); font-family: Inter, system-ui, -apple-system, &amp;quot;system-ui&amp;quot;, &amp;quot;Segoe UI&amp;quot;, Roboto, Oxygen, Ubuntu, Cantarell, &amp;quot;Fira Sans&amp;quot;, &amp;quot;Droid Sans&amp;quot;, Helvetica, Arial, sans-serif; text-align: left; background-color: rgb(33, 33, 33);&quot;&gt;GET /waters?type=industry&lt;/span&gt;" style="rounded=0;whiteSpace=wrap;html=1;" parent="1" vertex="1">
                    <mxGeometry x="2152" y="184" width="213" height="60" as="geometry"/>
                </mxCell>
                <mxCell id="25" value="&lt;span style=&quot;color: rgb(206, 145, 120); font-family: Menlo, Monaco, &amp;quot;Courier New&amp;quot;, monospace; background-color: rgb(31, 31, 31);&quot;&gt;POST /waters/calculate/industry&lt;/span&gt;" style="rounded=0;whiteSpace=wrap;html=1;" parent="1" vertex="1">
                    <mxGeometry x="2136.5" y="289" width="244" height="60" as="geometry"/>
                </mxCell>
                <mxCell id="28" value="&lt;div style=&quot;background-color: rgb(31, 31, 31); line-height: 18px;&quot;&gt;&lt;div style=&quot;&quot;&gt;&lt;font face=&quot;Menlo, Monaco, Courier New, monospace&quot; color=&quot;#cccccc&quot;&gt;{&lt;/font&gt;&lt;/div&gt;&lt;div style=&quot;&quot;&gt;&lt;font face=&quot;Menlo, Monaco, Courier New, monospace&quot; color=&quot;#cccccc&quot;&gt;&amp;nbsp; &quot;&lt;/font&gt;&lt;span style=&quot;color: rgb(206, 145, 120); font-family: Menlo, Monaco, &amp;quot;Courier New&amp;quot;, monospace;&quot;&gt;industry_id&lt;/span&gt;&lt;span style=&quot;color: rgb(204, 204, 204); font-family: Menlo, Monaco, &amp;quot;Courier New&amp;quot;, monospace;&quot;&gt;&quot;: &amp;lt;int&amp;gt;,&lt;/span&gt;&lt;br&gt;&lt;/div&gt;&lt;div style=&quot;&quot;&gt;&lt;font face=&quot;Menlo, Monaco, Courier New, monospace&quot; color=&quot;#cccccc&quot;&gt;&amp;nbsp; &quot;&lt;/font&gt;&lt;span style=&quot;color: rgb(206, 145, 120); font-family: Menlo, Monaco, &amp;quot;Courier New&amp;quot;, monospace;&quot;&gt;industry_area_size&lt;/span&gt;&lt;span style=&quot;color: rgb(204, 204, 204); font-family: Menlo, Monaco, &amp;quot;Courier New&amp;quot;, monospace;&quot;&gt;&quot;: &amp;lt;float&amp;gt;&lt;/span&gt;&lt;/div&gt;&lt;div style=&quot;&quot;&gt;&lt;font face=&quot;Menlo, Monaco, Courier New, monospace&quot; color=&quot;#cccccc&quot;&gt;}&lt;/font&gt;&lt;/div&gt;&lt;/div&gt;" style="shape=note;whiteSpace=wrap;html=1;backgroundOutline=1;darkOpacity=0.05;size=15;align=left;" parent="1" vertex="1">
                    <mxGeometry x="2462" y="254" width="262" height="130" as="geometry"/>
                </mxCell>
                <mxCell id="31" value="" style="endArrow=none;dashed=1;html=1;entryX=0;entryY=0.5;entryDx=0;entryDy=0;entryPerimeter=0;exitX=1;exitY=0.5;exitDx=0;exitDy=0;" parent="1" source="25" target="28" edge="1">
                    <mxGeometry width="50" height="50" relative="1" as="geometry">
                        <mxPoint x="2228" y="350" as="sourcePoint"/>
                        <mxPoint x="2278" y="300" as="targetPoint"/>
                    </mxGeometry>
                </mxCell>
                <mxCell id="32" value="" style="rounded=0;whiteSpace=wrap;html=1;" parent="1" vertex="1">
                    <mxGeometry x="3101" y="-56" width="788" height="539" as="geometry"/>
                </mxCell>
                <mxCell id="33" style="edgeStyle=none;html=1;exitX=0.5;exitY=1;exitDx=0;exitDy=0;entryX=0.5;entryY=0;entryDx=0;entryDy=0;" parent="1" source="34" target="36" edge="1">
                    <mxGeometry relative="1" as="geometry"/>
                </mxCell>
                <mxCell id="34" value="water_animal_cal" style="ellipse;whiteSpace=wrap;html=1;" parent="1" vertex="1">
                    <mxGeometry x="3251.5" y="43" width="120" height="80" as="geometry"/>
                </mxCell>
                <mxCell id="35" style="edgeStyle=none;html=1;exitX=0.5;exitY=1;exitDx=0;exitDy=0;entryX=0.5;entryY=0;entryDx=0;entryDy=0;" parent="1" source="36" target="37" edge="1">
                    <mxGeometry relative="1" as="geometry"/>
                </mxCell>
                <mxCell id="36" value="&lt;span style=&quot;color: rgb(255, 255, 255); font-family: Inter, system-ui, -apple-system, &amp;quot;system-ui&amp;quot;, &amp;quot;Segoe UI&amp;quot;, Roboto, Oxygen, Ubuntu, Cantarell, &amp;quot;Fira Sans&amp;quot;, &amp;quot;Droid Sans&amp;quot;, Helvetica, Arial, sans-serif; text-align: left; background-color: rgb(33, 33, 33);&quot;&gt;GET /waters?type=animal&lt;/span&gt;" style="rounded=0;whiteSpace=wrap;html=1;" parent="1" vertex="1">
                    <mxGeometry x="3205" y="179" width="213" height="60" as="geometry"/>
                </mxCell>
                <mxCell id="37" value="&lt;span style=&quot;color: rgb(206, 145, 120); font-family: Menlo, Monaco, &amp;quot;Courier New&amp;quot;, monospace; background-color: rgb(31, 31, 31);&quot;&gt;POST /waters/calculate/animal&lt;/span&gt;" style="rounded=0;whiteSpace=wrap;html=1;" parent="1" vertex="1">
                    <mxGeometry x="3189.5" y="284" width="244" height="60" as="geometry"/>
                </mxCell>
                <mxCell id="38" value="&lt;div style=&quot;background-color: rgb(31, 31, 31); line-height: 18px;&quot;&gt;&lt;div style=&quot;&quot;&gt;&lt;font face=&quot;Menlo, Monaco, Courier New, monospace&quot; color=&quot;#cccccc&quot;&gt;{&lt;/font&gt;&lt;/div&gt;&lt;div style=&quot;&quot;&gt;&lt;font face=&quot;Menlo, Monaco, Courier New, monospace&quot; color=&quot;#cccccc&quot;&gt;&amp;nbsp; &quot;&lt;/font&gt;&lt;span style=&quot;color: rgb(156, 220, 254); background-color: rgb(30, 30, 30);&quot;&gt;animal_id&lt;/span&gt;&lt;span style=&quot;color: rgb(204, 204, 204); font-family: Menlo, Monaco, &amp;quot;Courier New&amp;quot;, monospace;&quot;&gt;&quot;: &amp;lt;int&amp;gt;&lt;/span&gt;&lt;/div&gt;&lt;div style=&quot;&quot;&gt;&lt;font face=&quot;Menlo, Monaco, Courier New, monospace&quot; color=&quot;#cccccc&quot;&gt;&amp;nbsp; &quot;&lt;/font&gt;&lt;span style=&quot;color: rgb(156, 220, 254); background-color: rgb(30, 30, 30);&quot;&gt;number_animal&lt;/span&gt;&lt;span style=&quot;color: rgb(204, 204, 204); font-family: Menlo, Monaco, &amp;quot;Courier New&amp;quot;, monospace;&quot;&gt;&quot;: &amp;lt;int&amp;gt;,&lt;/span&gt;&lt;br&gt;&lt;/div&gt;&lt;div style=&quot;&quot;&gt;&lt;font face=&quot;Menlo, Monaco, Courier New, monospace&quot; color=&quot;#cccccc&quot;&gt;&amp;nbsp; &quot;&lt;/font&gt;&lt;span style=&quot;color: rgb(156, 220, 254); background-color: rgb(30, 30, 30);&quot;&gt;number_day&lt;/span&gt;&lt;span style=&quot;color: rgb(204, 204, 204); font-family: Menlo, Monaco, &amp;quot;Courier New&amp;quot;, monospace;&quot;&gt;&quot;: &amp;lt;int&amp;gt;&lt;/span&gt;&lt;br&gt;&lt;/div&gt;&lt;div style=&quot;&quot;&gt;&lt;font face=&quot;Menlo, Monaco, Courier New, monospace&quot; color=&quot;#cccccc&quot;&gt;}&lt;/font&gt;&lt;/div&gt;&lt;/div&gt;" style="shape=note;whiteSpace=wrap;html=1;backgroundOutline=1;darkOpacity=0.05;size=15;align=left;" parent="1" vertex="1">
                    <mxGeometry x="3515" y="249" width="262" height="130" as="geometry"/>
                </mxCell>
                <mxCell id="39" value="" style="endArrow=none;dashed=1;html=1;entryX=0;entryY=0.5;entryDx=0;entryDy=0;entryPerimeter=0;exitX=1;exitY=0.5;exitDx=0;exitDy=0;" parent="1" source="37" target="38" edge="1">
                    <mxGeometry width="50" height="50" relative="1" as="geometry">
                        <mxPoint x="3281" y="345" as="sourcePoint"/>
                        <mxPoint x="3331" y="295" as="targetPoint"/>
                    </mxGeometry>
                </mxCell>
            </root>
        </mxGraphModel>
    </diagram>
</mxfile>